<svg id="Capa_1" enable-background="new 0 0 496.996 496.996" height="512" viewBox="0 0 496.996 496.996" width="512" xmlns="http://www.w3.org/2000/svg"><g><path d="m56.754 270.923 177.184-208.969c7.624-8.992 21.496-8.992 29.12 0l177.184 208.968-191.744 42.741z" fill="#edf4ff"/><path d="m263.058 61.954c-7.624-8.992-21.496-8.992-29.12 0l-2.525 2.978c5.415-.035 10.843 2.207 14.685 6.737l168.891 199.253-179.117 39.927 12.626 2.815 191.744-42.741z" fill="#dbeaff"/><path d="m216.357 306.499 32.141-251.289 32.141 251.289-32.141 7.165z" fill="#8bb3ea"/><path d="m280.638 306.499-22.03 4.91-21.44-167.61 11.33-88.59z" fill="#739ad6"/><path d="m496.178 233.217-98.09 194.63c-2.36 4.68-6.06 8.42-10.49 10.83l-139.1-58.659-139.1 58.659c-4.43-2.41-8.13-6.15-10.49-10.83l-98.09-194.63c-3.04-6.02 2.92-12.63 9.22-10.23l238.46 90.68 238.46-90.68c6.3-2.4 12.26 4.21 9.22 10.23z" fill="#b8daff"/><g><path d="m486.958 222.987-15.3 5.818c.214 1.411.016 2.929-.733 4.412l-98.09 194.63c-.652 1.293-1.406 2.514-2.25 3.656l17.013 7.174c4.43-2.41 8.13-6.15 10.49-10.83l98.09-194.63c3.04-6.02-2.92-12.63-9.22-10.23z" fill="#a4ccff"/></g><path d="m387.598 438.677c-3.66 2.01-7.82 3.11-12.15 3.11h-253.9c-4.33 0-8.49-1.1-12.15-3.11l139.1-125.01z" fill="#8bb3ea"/><path d="m248.498 313.667-12.626 11.347 118.306 106.323c4.031 3.622 1.566 10.422-3.853 10.45-.043 0-.087 0-.13 0h25.253c4.33 0 8.49-1.1 12.15-3.11z" fill="#739ad6"/></g></svg>